<svg width="100" height="95" viewBox="0 0 100 95" fill="none" xmlns="http://www.w3.org/2000/svg">
<path d="M86.2 11H13.1C10.8 11 9 13 9 15.3V65.1C9 67.5 10.8 69.5 13.1 69.5H34.8H68.1H86.2C88.5 69.5 90.3 67.5 90.3 65.1V15.3C90.3 13 88.5 11 86.2 11ZM85.2 59.5H14.2V16.1H85.2V59.5Z" fill="#363635"/>
<path d="M69.2 79.8002H60.4V72.2002H38.9V79.8002H30.1C28.7 79.8002 27.5 81.0002 27.5 82.4002C27.5 82.8002 27.6 83.8002 27.7 84.1002H71.5C71.6 83.8002 71.7 82.8002 71.7 82.4002C71.8 81.0002 70.6 79.8002 69.2 79.8002Z" fill="#363635"/>
<path d="M33.2 54.6998C33.5 54.6998 33.8 54.3998 33.8 53.9998V49.7998C33.8 49.7998 27.2 54.6998 27.3 54.6998H33.2Z" fill="#363635"/>
<path d="M35.8999 48.1998V53.9998C35.8999 54.3998 36.1999 54.6998 36.4999 54.6998H42.3999C42.6999 54.6998 42.9999 54.3998 42.9999 53.9998V42.7998L35.9999 48.0998L35.8999 48.1998Z" fill="#363635"/>
<path d="M47.4002 39.4998L45.2002 41.1998V53.9998C45.2002 54.3998 45.5002 54.6998 45.8002 54.6998H51.7002C52.0002 54.6998 52.3002 54.3998 52.3002 53.9998V39.2998L50.4002 37.2998L47.4002 39.4998Z" fill="#363635"/>
<path d="M57.8998 42.6998C57.1998 43.2998 56.0998 43.1998 55.3998 42.4998L55.0998 42.1998L54.2998 41.3998V53.9998C54.2998 54.3998 54.5998 54.6998 54.8998 54.6998H60.7998C61.0998 54.6998 61.3998 54.3998 61.3998 53.9998V39.7998L58.6998 41.9998L57.8998 42.6998Z" fill="#363635"/>
<path d="M63.6001 38.1996V53.9996C63.6001 54.3996 63.9001 54.6996 64.2001 54.6996H70.1001C70.4001 54.6996 70.7001 54.3996 70.7001 53.9996V32.5996L66.4001 35.9996L63.6001 38.1996Z" fill="#363635"/>
<path d="M24.4998 53.0002C24.7998 52.9002 24.9998 52.8002 25.2998 52.7002L33.4998 46.6002L35.6998 45.0002L35.7998 44.9002L42.8998 39.5002L43.6998 38.9002L44.9998 37.9002L47.2998 36.2002L50.2998 33.9002L52.2998 35.9002L54.4998 38.1002L55.2998 38.9002L55.5998 39.2002C56.2998 39.9002 57.3998 40.0002 58.0998 39.4002L58.8998 38.8002L61.7998 36.5002L63.9998 34.8002L66.8998 32.5002L73.0998 27.3002L73.2998 27.1002V31.4002C73.2998 32.4002 74.1998 33.3002 75.1998 33.3002C76.1998 33.3002 77.0998 32.4002 77.0998 31.4002V23.1002C77.0998 22.6002 76.8998 22.1002 76.4998 21.8002C76.0998 21.4002 75.6998 21.2002 75.1998 21.2002H73.0998H66.4998C66.2998 21.2002 65.9998 21.3002 65.7998 21.3002H65.6998C65.0998 21.6002 64.5998 22.3002 64.5998 23.0002C64.5998 23.8002 65.0998 24.5002 65.7998 24.8002C65.9998 24.9002 66.1998 24.9002 66.4998 24.9002H68.6998H69.7998L67.7998 26.5002L63.9998 29.9002L61.7998 31.6002L58.8998 33.9002L57.0998 35.3002L55.2998 33.4002L54.4998 32.6002L52.2998 30.4002L51.8998 30.0002C51.1998 29.3002 50.1998 29.2002 49.3998 29.8002L47.2998 31.4002L45.0998 33.0002L43.6998 34.0002L42.8998 34.6002L35.7998 40.0002L35.6998 40.1002L33.4998 41.7002L24.1998 48.7002L22.9998 49.6002C22.1998 50.2002 21.9998 51.4002 22.5998 52.3002C23.0998 52.9002 23.7998 53.1002 24.4998 53.0002Z" fill="#363635"/>
</svg>
