<svg width="100" height="95" viewBox="0 0 100 95" fill="none" xmlns="http://www.w3.org/2000/svg">
<path d="M94.932 80.5018H5.06798C2.22497 80.5018 0 78.2769 0 75.4339V19.068C0 16.225 2.22497 14 5.06798 14H94.932C97.775 14 100 16.225 100 19.068V75.4339C100 78.1533 97.775 80.5018 94.932 80.5018ZM13.2262 73.0853H86.8974L64.7713 52.3189L53.5229 62.8257C51.5451 64.6798 48.4549 64.6798 46.4771 62.8257L35.2287 52.3189L13.2262 73.0853ZM7.41656 26.3609V68.3881L29.7899 47.3745L7.41656 26.3609ZM70.2101 47.2509L92.5834 68.2645V26.2373L70.2101 47.2509ZM38.8133 45.5204L50.0618 56.0272L62.2991 44.6551L86.8974 21.4166H12.979L37.7009 44.5315L38.8133 45.5204Z" fill="#363635"/>
</svg>
