<svg width="100" height="95" viewBox="0 0 100 95" fill="none" xmlns="http://www.w3.org/2000/svg">
<path d="M91.0274 27.9863C93.8157 28.7829 98.9939 25.2976 99.9897 17.9287C100.189 13.348 97.5997 9.56396 93.4174 9.3648C90.3304 9.26522 86.9447 12.153 86.8451 16.7337C86.6459 21.3144 87.1438 26.9905 91.0274 27.9863Z" fill="#363635"/>
<path d="M96.6036 30.2773C95.4086 30.3769 94.2137 30.7752 93.1183 31.4723C92.0229 32.1694 88.9359 38.9408 87.8405 41.7291C87.6414 42.227 89.3342 33.3643 89.0355 33.7627C87.3426 35.7543 86.2473 38.9408 86.2473 38.9408C84.8531 44.6169 85.4506 49.7951 84.2557 59.3548L84.5544 59.5539C84.2557 59.6535 83.8573 59.7531 83.5586 59.8527C81.6666 60.3506 79.7745 60.9481 78.0817 61.5455C77.285 61.8443 76.4884 62.143 75.7913 62.4418C75.393 62.5413 75.0943 62.7405 74.7955 62.9397C74.4968 63.1388 74.0985 63.2384 73.7997 63.5371C72.8039 64.1346 72.2065 65.23 72.0073 66.3254C71.9077 67.4208 71.7086 69.4124 71.4098 71.8023C70.6132 78.8725 69.5178 89.7267 69.5178 89.7267C69.3186 91.9175 70.9119 93.8095 73.1027 94.0087C75.2934 94.2079 77.1855 92.6146 77.3846 90.4238C77.3846 90.4238 77.4842 89.2288 77.6834 87.3368C77.9821 84.5486 78.3804 80.2666 78.7787 76.2834C79.0775 73.6943 79.2766 71.1052 79.4758 69.3128C79.4758 69.3128 90.5292 68.5162 92.9191 67.9187C93.6162 67.7195 94.3133 67.3212 94.8112 66.8233L97.4998 67.122C98.9935 49.7951 102.081 32.966 96.6036 30.2773Z" fill="#363635"/>
<path d="M8.97295 27.9863C12.757 26.9905 13.3545 21.3144 13.1553 16.7337C12.9562 12.153 9.57043 9.26522 6.58302 9.3648C2.40065 9.56396 -0.188436 13.348 0.0107244 17.9287C0.906946 25.2976 6.08512 28.7829 8.97295 27.9863Z" fill="#363635"/>
<path d="M28.6902 71.7017C28.4911 69.3118 28.2919 67.3202 28.0927 66.2248C27.9932 65.0298 27.2961 64.034 26.3003 63.4366C25.902 63.2374 25.6032 63.0382 25.3045 62.8391C24.707 62.5403 24.0099 62.2416 23.3129 62.0424C22.0183 61.5445 20.6242 61.1462 19.0309 60.6483C17.836 60.25 16.5414 59.9512 15.446 59.6525L15.7448 59.4533C14.5498 49.8936 15.1473 44.6159 13.7532 39.0394C13.7532 39.0394 12.7574 35.8528 10.9649 33.8612C10.6662 33.4629 12.3591 42.3255 12.1599 41.8276C10.9649 38.8402 7.97753 32.0688 6.88215 31.3717C5.78677 30.6747 4.5918 30.2763 3.39684 30.1768C-2.08007 32.8654 1.00692 49.6945 2.6002 67.0214L5.28887 66.7227C5.78677 67.2206 6.38425 67.6189 7.18089 67.8181C9.57082 68.4156 20.5246 68.9135 20.6242 69.2122C20.7238 70.1084 20.8234 71.2038 20.923 72.3988C21.3213 75.9837 21.7196 80.4648 22.0183 84.0497C22.2175 85.8421 22.3171 87.4354 22.4167 88.5308C22.5162 89.6262 22.6158 90.3232 22.6158 90.3232C22.815 92.514 24.707 94.1073 26.8978 93.9081C29.0885 93.7089 30.6818 91.8169 30.4827 89.6262C30.4827 89.6262 29.9848 84.8463 29.4869 79.469C29.1881 76.8799 28.8894 74.0916 28.6902 71.7017Z" fill="#363635"/>
<path d="M47.6104 64.1334V63.5359C47.2121 61.4447 45.5192 59.951 43.4281 60.0506C41.4365 60.1502 39.7436 61.843 39.5444 63.9342V64.5317L40.5402 87.236V87.8335C40.9386 89.9247 42.6314 91.4184 44.7226 91.3188C46.7142 91.2192 48.4071 89.5263 48.6062 87.4352V86.8377L47.6104 64.1334Z" fill="#363635"/>
<path d="M56.2734 60.0506C54.1822 59.951 52.3898 61.4447 52.091 63.5359V64.1334L51.0952 86.8377V87.4352C51.2944 89.5263 52.8877 91.2192 54.9788 91.3188C56.9704 91.4184 58.7629 89.9247 59.1612 87.8335V87.236L60.157 64.5317V63.9342C59.9579 61.7435 58.3646 60.1502 56.2734 60.0506Z" fill="#363635"/>
<path d="M43.2286 13.7463C44.1248 17.3312 46.3156 20.6173 49.9005 20.6173C53.4853 20.6173 55.6761 17.3312 56.5723 13.6467C57.5681 13.2484 58.1656 11.6551 58.066 10.4601C57.9665 9.66348 57.5681 9.26516 57.0702 9.066C56.8711 4.58489 54.0828 1 49.9005 1C45.7181 1 42.9298 4.48531 42.7307 8.96642C42.1332 9.16558 41.6353 9.5639 41.5357 10.3605C41.3366 11.8542 42.0336 13.4475 43.2286 13.7463Z" fill="#363635"/>
<path d="M38.5481 43.0231C38.7472 38.7411 39.8426 32.6667 40.4401 32.4676V43.3218H59.1612V33.563C59.1612 33.6625 59.2608 33.6625 59.2608 33.7621C60.0574 35.0567 60.8541 36.4508 61.6507 37.5462C62.049 38.1437 62.4473 38.6416 62.7461 39.0399C62.9452 39.239 63.1444 39.5378 63.4431 39.7369C63.5427 39.8365 63.7419 40.0357 63.941 40.1353C64.1402 40.2348 64.4389 40.434 64.8373 40.5336C65.2356 40.6332 65.5343 40.6332 65.8331 40.6332C66.6297 40.6332 67.028 40.434 67.3268 40.2348C67.6255 40.0357 67.9243 39.9361 68.1234 39.7369C68.5217 39.4382 68.9201 39.1395 69.3184 38.7411C70.0154 38.1437 70.7125 37.4466 71.4096 36.65C73.5007 34.3596 75.5919 31.8701 75.5919 31.8701C76.6873 30.476 76.5877 28.3848 75.2932 27.1898C73.9986 25.9949 72.007 26.194 70.9117 27.4886C70.7125 27.6877 69.2188 29.5798 67.6255 31.2726C67.1276 31.7705 66.6297 32.368 66.2314 32.7663C65.9326 32.368 65.6339 31.8701 65.3352 31.3722C64.4389 29.9781 63.4431 28.2852 62.7461 27.0903C62.3478 26.4928 62.049 25.8953 61.8499 25.5965C61.7503 25.3974 61.6507 25.2978 61.6507 25.1982C61.4515 24.8995 61.2524 24.7003 61.0532 24.5012C60.7545 24.0033 59.7587 23.4058 56.6717 22.41C55.875 22.1112 55.178 21.9121 54.4809 21.8125C54.3813 23.4058 53.7839 27.2894 51.5931 32.0693C51.2944 28.8827 50.6969 26.0945 50.6969 25.7957L51.4935 23.8041L50.199 22.5096H49.3027L48.0082 23.8041L48.8048 25.7957C48.7053 26.0945 48.2074 28.8827 47.9086 32.0693C45.7179 27.2894 45.22 23.4058 45.0208 21.8125C44.3237 21.9121 43.7263 22.2108 43.2284 22.5096C41.3363 23.2066 38.5481 24.2024 37.0544 25.0986C36.2577 25.8953 33.5691 29.8785 32.6729 42.7243C32.6729 42.9235 32.6729 43.1227 32.6729 43.4214H38.6477C38.5481 43.2223 38.5481 43.1227 38.5481 43.0231Z" fill="#363635"/>
<path d="M81.069 57.164H81.1686V53.6787L74.6959 43.7207H72.1068C72.306 43.8203 72.4056 43.9199 72.6047 44.0194L77.7829 53.2804C77.7829 53.38 77.7829 53.38 77.7829 53.4796H21.7192C21.7192 53.4796 21.7192 53.38 21.7192 53.2804L27.0966 44.0194C27.1961 43.9199 27.2957 43.8203 27.4949 43.7207H25.0054L18.3335 53.6787V57.0645C18.4331 57.0645 18.4331 57.0645 18.5327 57.0645L81.069 57.164Z" fill="#363635"/>
</svg>
