<svg width="100" height="95" viewBox="0 0 100 95" fill="none" xmlns="http://www.w3.org/2000/svg">
<path d="M36.9395 53.4805H22.2285C21.186 53.7121 20.2593 54.0596 19.4485 54.523C16.4368 55.5655 12.1509 57.1872 9.83422 58.5772C8.67588 59.8514 4.39001 66.1064 3 85.9141C3 86.2616 3 86.6091 3 86.9566H12.1509C12.1509 86.8408 12.1509 86.6091 12.1509 86.4932C12.4984 79.8907 14.2359 70.3923 15.0468 70.0448V86.9566H44.1212V71.7823C44.237 71.8981 44.237 72.014 44.3528 72.1298C45.627 74.2148 46.9012 76.2998 48.0595 78.0373C48.6387 78.8482 49.2179 79.659 49.7971 80.354C50.1446 80.7015 50.3762 81.049 50.8396 81.3965C51.0712 81.6282 51.3029 81.744 51.6504 81.9757C51.9979 82.2074 52.3454 82.439 53.0404 82.6707C53.6196 82.7865 54.0829 82.9024 54.5463 82.9024C55.7046 82.9024 56.3996 82.5549 56.9788 82.3232C57.4421 82.0915 57.9055 81.8599 58.253 81.6282C58.948 81.1649 59.5271 80.7015 60.2221 80.1224C61.2647 79.1957 62.423 78.0373 63.4655 76.879C66.7089 73.404 69.9522 69.4656 69.9522 69.3498C71.6897 67.1489 71.4581 63.9056 69.4889 62.0522C67.4039 60.1989 64.3922 60.4305 62.6547 62.6314C62.423 62.9789 59.9905 65.7589 57.558 68.5389C56.7471 69.3498 56.0521 70.1606 55.3571 70.8556C54.8938 70.1606 54.4304 69.4656 53.9671 68.7706C52.5771 66.5697 51.0712 64.0214 50.0287 62.0522C49.4496 61.1255 48.9862 60.1989 48.6387 59.6197C48.5229 59.2722 48.2912 59.0405 48.2912 58.9247C48.0595 58.9247 47.9437 58.8088 47.9437 58.8088C47.712 58.3455 47.3645 57.998 47.017 57.6505C46.5537 56.8397 44.932 55.913 40.1828 54.4071C39.0245 54.0596 37.982 53.7121 36.9395 53.4805Z" fill="#363635"/>
<path d="M19.3322 41.0867C20.7222 46.6468 24.1972 51.7435 29.7573 51.7435C35.3173 51.7435 38.6765 46.6468 40.1823 40.9709C41.6882 40.2759 42.7307 37.8434 42.499 36.1059C42.3832 34.9475 41.804 34.2525 40.8774 34.0208C40.5299 27.0708 36.244 21.5107 29.7573 21.5107C23.2705 21.5107 18.9847 26.955 18.6372 33.905C17.5947 34.1367 16.8997 34.8317 16.7838 36.1059C16.4363 38.075 17.5947 40.6234 19.3322 41.0867Z" fill="#363635"/>
<path d="M17.0155 42.1282C15.973 41.8965 15.1622 40.9699 14.583 39.8115V54.175C15.973 53.5958 17.363 53.1325 18.6372 52.6691C18.9847 52.4375 19.448 52.2058 19.9114 52.09V48.8466C18.5214 46.8774 17.5947 44.5607 17.0155 42.1282Z" fill="#363635"/>
<path d="M92.887 9H18.753C16.4364 9 14.583 10.9692 14.583 13.4017V34.136C14.9305 33.6727 15.5097 33.441 16.0889 33.3252C16.3205 29.271 17.5947 25.6801 19.7956 23.016V14.2125H91.8445V58.2296H50.0283L50.26 58.6929C50.6075 59.2721 51.0708 60.0829 51.65 61.0096C52.4608 62.3996 53.9667 65.0638 55.5884 67.6122C55.7042 67.4963 55.82 67.2647 56.0517 67.1488C58.6001 64.3688 61.0326 61.3571 61.0326 61.3571C62.3067 59.7354 64.2759 58.8088 66.2451 58.8088C67.8668 58.8088 69.4885 59.3879 70.7627 60.5463C72.8477 62.5155 73.5427 65.5271 72.7318 68.1913H74.5852H92.887C95.2037 68.1913 97.057 66.2221 97.057 63.7896V13.4017C97.057 10.9692 95.2037 9 92.887 9Z" fill="#363635"/>
<path d="M46.7853 78.8488C46.4378 78.2697 46.0903 77.8063 45.627 77.1113V83.1347H50.7237C50.3762 82.903 50.1445 82.6714 49.9128 82.4397C49.3336 81.9764 48.9861 81.513 48.7545 81.1655C48.0595 80.7022 47.4803 79.8914 46.7853 78.8488Z" fill="#363635"/>
<path d="M75.6282 78.8485H66.709V75.4893C66.014 76.3001 65.319 77.1109 64.5081 77.9218C63.234 79.3118 62.0756 80.3543 61.1489 81.281C60.3381 81.976 59.7589 82.4393 59.0639 82.9027C58.9481 83.0185 58.7164 83.1343 58.6006 83.2502H78.0608C78.1766 82.9026 78.2924 81.8601 78.2924 81.5126C78.2924 80.0068 77.0182 78.8485 75.6282 78.8485Z" fill="#363635"/>
</svg>
