<svg width="180" height="90" viewBox="0 0 180 90" fill="none" xmlns="http://www.w3.org/2000/svg">
<path d="M44.6123 29.0083V39.7934H51.7021V29.0083H44.6123Z" fill="#8C8C8C"/>
<path d="M44.6123 50.2065V60.9917H51.7021V50.2065H44.6123Z" fill="#8C8C8C"/>
<path d="M51.7021 9.66941C51.7021 8.18181 52.8216 7.06611 54.3142 7.06611H106.182C107.675 7.06611 108.794 8.18181 108.794 9.66941V29.3801C111.406 27.1487 113.645 24.9173 115.884 23.0578V9.66941C115.884 4.4628 111.406 0 106.182 0H53.941C48.7169 0 44.6123 4.4628 44.6123 9.66941V18.595H51.7021V9.66941Z" fill="#8C8C8C"/>
<path d="M115.138 53.1821C112.899 55.4135 110.66 57.273 108.421 59.1325V80.3309C108.421 81.8185 107.301 82.9342 105.809 82.9342H53.941C52.4484 82.9342 51.329 81.8185 51.329 80.3309V71.0333H44.6123V80.3309C44.6123 85.5375 49.0901 90.0003 54.3142 90.0003H106.182C111.406 90.0003 115.884 85.5375 115.884 80.3309V53.9259C115.511 53.9259 115.138 53.554 115.138 53.1821Z" fill="#8C8C8C"/>
<path d="M97.2257 36.8182V22.3141C97.2257 20.8265 95.7331 19.3389 94.2405 19.3389H65.8812C64.3886 19.3389 62.896 20.8265 62.896 22.3141V36.4463C62.896 37.9339 64.3886 39.4215 65.8812 39.4215H94.2405C95.7331 39.7934 97.2257 38.3058 97.2257 36.8182ZM93.1211 35.7025H67.0006V23.4298H93.4942V35.7025H93.1211Z" fill="#8C8C8C"/>
<path d="M42.3731 26.0326H44.2389H51.3287H53.1945C53.9408 26.0326 53.9408 26.0326 53.9408 25.6607V21.9417C53.9408 21.5698 53.5676 21.5698 53.5676 21.5698H51.7019H44.612H42.3731C42.3731 21.5698 42 21.5698 42 21.9417V25.6607C42 26.0326 42.3731 26.0326 42.3731 26.0326Z" fill="#8C8C8C"/>
<path d="M42.3731 47.2314H44.2389H51.3287H53.1945C53.5676 47.2314 53.5676 46.8595 53.5676 46.8595V43.1405C53.5676 42.7686 53.1945 42.7686 53.1945 42.7686H51.7019H44.612H42.3731C42 42.7686 42 43.1405 42 43.1405V46.8595C42 47.2314 42.3731 47.2314 42.3731 47.2314Z" fill="#8C8C8C"/>
<path d="M53.5676 68.4301C53.9408 68.4301 53.9408 68.0582 53.9408 68.0582V64.3392C53.9408 63.9673 53.5676 63.9673 53.5676 63.9673H51.7019H44.612H42.3731C42 63.9673 42 64.3392 42 64.3392V68.0582C42 68.4301 42.3731 68.4301 42.3731 68.4301H44.2389H51.3287H53.5676Z" fill="#8C8C8C"/>
<path d="M95.3604 63.5949L89.7632 58.0164L89.39 57.6445C84.9123 63.223 81.9271 67.6858 80.8076 70.2891L83.0465 72.5205C85.6586 71.4048 89.7632 68.4296 94.9873 64.3387C94.9873 63.5949 95.3604 63.5949 95.3604 63.5949Z" fill="#8C8C8C"/>
<path d="M137.526 17.4794L136.034 15.9918C135.661 15.6199 134.914 15.6199 134.541 15.9918L131.183 18.5951L130.436 17.8513C124.093 22.3141 115.137 30.124 105.809 39.4215C100.584 44.6281 95.7335 49.8347 91.6289 54.6695L97.9724 61.3637C102.45 57.2728 107.674 52.438 113.272 47.2314C122.6 37.9339 130.436 29.0083 134.914 22.686L134.168 21.9422L137.153 18.967C137.899 18.5951 137.899 17.8513 137.526 17.4794Z" fill="#8C8C8C"/>
<path d="M81.5541 72.5208L80.0615 71.0332C78.942 72.1489 77.8226 73.2646 77.4494 74.3803C77.0763 75.1241 76.7031 75.8679 76.7031 75.8679H77.0763C77.4494 75.8679 77.8226 75.496 78.1957 75.1241C79.3152 74.7522 80.4346 74.0084 81.5541 72.5208Z" fill="#8C8C8C"/>
<path d="M133.422 32.3557L130.81 29.7524L128.571 31.9838L131.556 34.2152L119.989 45.7442C118.869 46.8599 118.869 48.7194 119.989 49.8351L135.288 34.959C135.288 34.5871 135.288 34.2152 134.914 33.4714L133.422 32.3557Z" fill="#8C8C8C"/>
</svg>
