<svg width="180" height="90" viewBox="0 0 180 90" fill="none" xmlns="http://www.w3.org/2000/svg">
<path d="M121.442 38.9535C123.009 38.8501 124.576 39.3668 125.725 40.2967C126.874 41.2266 127.606 42.5698 127.814 44.223C127.919 45.7729 127.397 47.3228 126.456 48.4594C125.516 49.5959 124.158 50.3192 122.486 50.5259C120.919 50.6292 119.352 50.1126 118.203 49.1826C117.054 48.2527 116.322 46.9095 116.113 45.2563C116.009 43.7064 116.531 42.1565 117.472 41.02C118.516 39.8834 119.875 39.1601 121.442 38.9535Z" fill="#8C8C8C"/>
<path d="M144.008 17.5655C146.41 17.3588 148.604 18.0821 150.276 19.5287C151.948 20.9752 153.097 22.9384 153.306 25.3149C153.515 27.6913 152.783 29.8612 151.321 31.5144C149.858 33.1676 147.873 34.3041 145.47 34.5108C143.067 34.7174 140.873 33.9942 139.202 32.5476C137.53 31.1011 136.381 29.1379 136.172 26.7614C135.963 24.3849 136.694 22.2151 138.157 20.5619C139.62 18.9087 141.605 17.7721 144.008 17.5655Z" fill="#8C8C8C"/>
<path d="M115.8 16.0155C117.367 15.9122 118.934 16.4288 120.083 17.3587C121.233 18.2886 121.964 19.6319 122.173 21.2851C122.277 22.8349 121.755 24.3848 120.815 25.5214C119.874 26.6579 118.516 27.3812 116.845 27.5879C115.278 27.6912 113.711 27.1746 112.561 26.2446C111.412 25.3147 110.681 23.9715 110.472 22.3183C110.367 20.7684 110.89 19.2186 111.83 18.082C112.875 16.9454 114.233 16.2221 115.8 16.0155Z" fill="#8C8C8C"/>
<path d="M136.381 0C155.604 0 168.35 14.3622 168.35 33.374C168.35 34.3039 167.723 34.6139 167.723 36.887C167.619 39.1602 173.051 50.2159 173.783 52.0758C174.41 53.729 173.992 56.7254 171.484 56.6221C168.35 56.5187 168.037 58.5852 169.604 59.6185C170.335 60.1351 169.604 62.4083 169.081 62.7182C168.559 63.0282 165.738 64.0615 165.529 64.1648C165.32 64.3714 166.574 65.0947 166.992 65.818C167.41 66.4379 166.47 68.7111 166.47 68.7111C166.47 68.7111 165.529 69.2277 163.962 70.3643C162.082 71.6042 163.753 75.6339 163.753 76.7704C163.753 77.907 162.082 81.9367 158.007 81.9367C153.828 81.9367 146.933 79.2502 146.933 79.2502L145.053 88.0328C143.694 87.5162 120.501 80.2835 114.651 78.6303C114.024 78.4236 113.397 78.217 112.666 78.0103L114.233 66.128C110.159 59.4118 100.443 48.976 99.3979 38.8502C95.8459 12.8123 114.233 0 136.381 0ZM138.262 37.6103C139.725 38.4369 141.396 38.9535 143.172 39.1602L143.486 42.1566L148.709 41.7433L148.5 38.7469C150.172 38.2302 151.739 37.4036 153.097 36.3704L155.395 38.3336L158.739 34.3039L156.44 32.3407C157.276 30.8942 157.798 29.241 158.007 27.4844L161.037 27.1745L160.619 22.0082L157.589 22.3182C157.067 20.665 156.231 19.1151 155.187 17.7719L157.172 15.4987L153.097 12.1923L151.112 14.5688C149.649 13.7422 147.978 13.2256 146.202 13.0189L145.888 9.91919L140.665 10.3325L140.978 13.4322C139.307 13.9489 137.74 14.6721 136.486 15.7054L134.083 13.7422L130.635 17.7719L133.038 19.7351C132.202 21.1816 131.68 22.8348 131.471 24.5913L128.441 24.9013L128.859 30.0676L131.889 29.7576C132.411 31.4108 133.143 32.9607 134.292 34.3039L132.307 36.577L136.381 39.9868L138.262 37.6103ZM111.203 47.3228L113.293 47.1162C113.606 48.2527 114.129 49.286 114.86 50.2159L113.502 51.7658L116.218 54.0389L117.576 52.4891C118.621 53.0057 119.666 53.419 120.919 53.5223L121.128 55.4855L124.68 55.1755L124.471 53.2123C125.621 52.9024 126.665 52.2824 127.606 51.6625L129.173 53.0057L131.471 50.3192L129.904 48.976C130.426 47.9428 130.844 46.9095 130.949 45.6696L133.038 45.463L132.725 41.9499L130.635 42.1566C130.322 41.02 129.8 39.9868 129.068 39.1602L130.426 37.6103L127.71 35.3371L126.352 36.887C125.307 36.3704 124.263 35.9571 123.113 35.8538L122.904 33.7873L119.352 34.0972L119.561 36.1637C118.412 36.4737 117.367 36.9903 116.532 37.7136L114.964 36.3704L112.666 39.0568L114.233 40.4C113.711 41.4333 113.293 42.4665 113.188 43.7064L111.099 43.9131L111.203 47.3228ZM105.562 24.3847L107.651 24.178C107.965 25.3146 108.487 26.3479 109.218 27.2778L107.86 28.8277L110.577 31.1008L111.935 29.5509C112.979 30.0676 114.024 30.4809 115.278 30.5842L115.487 32.6507L119.039 32.3407L118.83 30.3775C119.979 30.0676 121.024 29.4476 121.964 28.8277L123.531 30.1709L125.83 27.4844L124.263 26.1412C124.785 25.108 125.203 24.0747 125.307 22.8348L127.397 22.6282L127.083 19.1151L124.994 19.3218C124.68 18.1852 124.158 17.1519 123.427 16.3253L124.785 14.7755L122.069 12.5023L120.71 14.0522C119.666 13.5356 118.621 13.1223 117.472 13.0189L117.263 10.9524L113.711 11.2624L113.92 13.3289C112.77 13.6389 111.726 14.1555 110.89 14.8788L109.323 13.5356L107.024 16.222L108.592 17.5652C108.069 18.5985 107.651 19.6317 107.547 20.8716L105.457 21.0783L105.562 24.3847Z" fill="#8C8C8C"/>
<path d="M31.4539 41.6639C30.4062 40.8161 28.9699 40.3395 27.5342 40.4299C26.0968 40.6231 24.8541 41.2848 23.8921 42.3272C23.0404 43.3621 22.5636 44.7755 22.6548 46.1867C22.8515 47.7171 23.5244 48.9337 24.5609 49.7725C25.6092 50.6207 27.0463 51.0973 28.4827 51.0064C30.0347 50.8114 31.2667 50.144 32.1145 49.1192C32.9713 48.0834 33.4515 46.6654 33.36 45.2497C33.1633 43.7193 32.4904 42.5026 31.4539 41.6639Z" fill="white" stroke="#8C8C8C"/>
<path d="M55.9923 20.8853C54.4262 19.5301 52.3669 18.8467 50.0939 19.0422C47.8323 19.2367 45.962 20.3041 44.5751 21.8717C43.2055 23.4197 42.5165 25.4531 42.7137 27.6961C42.9099 29.9279 43.9869 31.7759 45.5725 33.148C47.1385 34.5033 49.1978 35.1866 51.4708 34.9911C53.7324 34.7966 55.6027 33.7292 56.9897 32.1616C58.3592 30.6136 59.0483 28.5802 58.8511 26.3372C58.6549 24.1054 57.5779 22.2574 55.9923 20.8853Z" fill="white" stroke="#8C8C8C"/>
<path d="M25.8123 18.7259C24.7646 17.8781 23.3283 17.4015 21.8926 17.4919C20.4552 17.6851 19.2125 18.3469 18.2505 19.3892C17.3988 20.4241 16.922 21.8375 17.0132 23.2487C17.2099 24.7791 17.8828 25.9957 18.9193 26.8345C19.9676 27.6827 21.4047 28.1594 22.8411 28.0684C24.3931 27.8734 25.6251 27.206 26.4729 26.1812C27.3297 25.1454 27.8099 23.7274 27.7184 22.3117C27.5217 20.7813 26.8488 19.5646 25.8123 18.7259Z" fill="white" stroke="#8C8C8C"/>
<path d="M71.7066 69.0023C71.6002 69.0661 71.469 69.1464 71.3144 69.2437C70.8689 69.524 70.2295 69.9458 69.4348 70.5215C68.6845 71.0257 68.3363 71.785 68.1971 72.5213C68.0597 73.2479 68.1083 74.0286 68.2057 74.7234C68.3005 75.3998 68.453 76.0664 68.5762 76.6047L68.5901 76.6657C68.7307 77.2808 68.7968 77.607 68.7968 77.749C68.7968 77.848 68.744 78.1748 68.5466 78.6564C68.3592 79.1137 68.0702 79.6384 67.6733 80.1305C66.8864 81.106 65.7146 81.9152 64.0507 81.9152C62.1193 81.9152 59.4724 81.2835 57.2331 80.6139C56.1295 80.2839 55.1532 79.9536 54.4529 79.7058C54.103 79.582 53.8228 79.479 53.6309 79.4074C53.535 79.3715 53.4612 79.3436 53.4118 79.3247L53.3565 79.3035L53.3431 79.2983L53.3401 79.2972L53.3396 79.297L53.3396 79.2969C53.3396 79.2969 53.3396 79.297 52.9766 80.2287C52.9766 80.2287 53.3296 80.3663 53.9243 80.5791L71.7066 69.0023ZM71.7066 69.0023C71.7092 68.9952 71.7118 68.988 71.7145 68.9808C71.7907 68.7727 71.8863 68.4943 71.9688 68.2031C72.0532 67.905 72.1138 67.6277 72.1349 67.4127C72.142 67.3402 72.1431 67.2878 72.1422 67.2532C72.0209 67.073 71.7675 66.8411 71.4106 66.5288L71.3932 66.5136C71.2437 66.3828 71.0448 66.2089 70.902 66.0457C70.8351 65.9694 70.7009 65.8086 70.6202 65.5898C70.5762 65.4703 70.5293 65.2836 70.5586 65.0587C70.5905 64.814 70.7037 64.5964 70.8696 64.4323L70.9846 64.3186L71.1295 64.2469C71.2324 64.1961 71.5005 64.0929 71.7582 63.9937L71.7833 63.984C71.8624 63.9536 71.9469 63.9211 72.0355 63.8871C72.2885 63.7899 72.5754 63.6797 72.8687 63.5656C73.2649 63.4114 73.6643 63.2534 73.9945 63.1159C74.2602 63.0052 74.442 62.9237 74.5415 62.875C74.565 62.8394 74.5965 62.7857 74.6329 62.712C74.7269 62.5213 74.8199 62.2649 74.8824 61.9971C74.9464 61.7227 74.965 61.4937 74.9516 61.3452C74.9511 61.3397 74.9506 61.3345 74.9501 61.3296C74.0103 60.6379 73.3955 59.4553 73.907 58.275C74.4303 57.0672 75.8533 56.5448 77.5607 56.6011L77.5607 56.6011L77.5689 56.6014C77.9819 56.6185 78.244 56.5107 78.4252 56.3721C78.6194 56.2235 78.7898 55.985 78.9114 55.6473C79.1643 54.9451 79.1257 54.0322 78.8932 53.4142C78.7177 52.9693 78.279 52.0118 77.7075 50.7645C77.0933 49.4241 76.3259 47.7491 75.567 46.016C74.8461 44.3697 74.1441 42.694 73.6273 41.2793C73.3692 40.5728 73.1517 39.9164 73.001 39.3528C72.8607 38.8279 72.7514 38.2896 72.7667 37.8455C72.7686 36.6124 72.9421 35.8665 73.1299 35.2937C73.1891 35.1131 73.2362 34.9795 73.2732 34.8745C73.3633 34.6189 73.3936 34.5329 73.3936 34.3525C73.3936 25.0707 70.2844 16.9808 64.888 11.2197C59.4976 5.46505 51.7745 1.97852 42.4248 1.97852C31.5261 1.97852 21.6638 5.13218 14.9777 11.3706C8.32561 17.5771 4.69384 26.9506 6.43222 39.6935L6.43444 39.7098L6.43612 39.7261C6.93273 44.5394 9.5083 49.5115 12.5609 54.2007C14.0241 56.4482 15.5758 58.6004 17.0313 60.6192L17.1978 60.8501C18.6919 62.9229 20.0883 64.8682 21.1315 66.5878L21.314 66.8885L21.268 67.2372L19.8125 78.2732C20.2247 78.4011 20.6097 78.5279 20.987 78.6523C26.2594 80.1436 45.4184 86.1012 50.3527 87.7073L71.7066 69.0023ZM72.4069 64.7285C72.4073 64.7289 72.4077 64.7294 72.4081 64.7298C72.3991 64.718 72.397 64.7172 72.4069 64.7285ZM74.9362 61.2552C74.936 61.2554 74.937 61.2594 74.9398 61.2661C74.9378 61.2583 74.9364 61.2549 74.9362 61.2552ZM74.5087 62.9193C74.5087 62.9195 74.5105 62.9177 74.5139 62.9134C74.5104 62.917 74.5087 62.9191 74.5087 62.9193ZM72.1384 67.2064C72.1383 67.2065 72.1386 67.2084 72.1393 67.2119C72.1388 67.2081 72.1384 67.2063 72.1384 67.2064Z" fill="white" stroke="#8C8C8C" stroke-width="2"/>
<path d="M31.4539 40.6854C30.4062 39.8375 28.9699 39.361 27.5342 39.4513C26.0968 39.6446 24.8541 40.3063 23.8921 41.3487C23.0404 42.3835 22.5636 43.797 22.6548 45.2082C22.8515 46.7386 23.5244 47.9552 24.5609 48.7939C25.6092 49.6422 27.0463 50.1188 28.4827 50.0279C30.0347 49.8329 31.2667 49.1655 32.1145 48.1407C32.9713 47.1049 33.4515 45.6869 33.36 44.2712C33.1633 42.7407 32.4904 41.5241 31.4539 40.6854Z" stroke="#8C8C8C"/>
<path d="M55.9913 19.9063C54.4253 18.551 52.366 17.8677 50.0929 18.0632C47.8313 18.2577 45.961 19.3251 44.5741 20.8927C43.2045 22.4407 42.5155 24.4741 42.7127 26.7171C42.9089 28.9489 43.9859 30.7969 45.5715 32.169C47.1375 33.5243 49.1968 34.2076 51.4699 34.0121C53.7314 33.8176 55.6018 32.7502 56.9887 31.1826C58.3583 29.6346 59.0473 27.6012 58.8501 25.3582C58.6539 23.1264 57.5769 21.2784 55.9913 19.9063Z" stroke="#8C8C8C"/>
<path d="M25.8114 17.7469C24.7636 16.8991 23.3274 16.4225 21.8916 16.5129C20.4542 16.7061 19.2115 17.3679 18.2495 18.4102C17.3978 19.4451 16.921 20.8585 17.0123 22.2697C17.209 23.8001 17.8818 25.0167 18.9183 25.8555C19.9666 26.7037 21.4037 27.1804 22.8401 27.0894C24.3921 26.8944 25.6241 26.227 26.4719 25.2022C27.3288 24.1664 27.8089 22.7484 27.7174 21.3327C27.5207 19.8023 26.8479 18.5856 25.8114 17.7469Z" stroke="#8C8C8C"/>
<path d="M44.305 37.61C45.7676 38.4366 47.4392 38.9533 49.2152 39.1599L49.5286 42.1563L54.7523 41.743L54.5433 38.7466C56.2149 38.23 57.782 37.4034 59.1401 36.3701L61.4385 38.3333L64.7817 34.3036L62.4833 32.3405C63.3191 30.8939 63.8414 29.2407 64.0504 27.4842L67.0801 27.1742L66.6622 22.008L63.6325 22.3179C63.1101 20.6647 62.2743 19.1149 61.2296 17.7716L63.2146 15.4985L59.1401 12.1921L57.1551 14.5686C55.6925 13.742 54.021 13.2253 52.2449 13.0187L51.9315 9.91895L46.7078 10.3322L47.0213 13.432C45.3497 13.9486 43.7826 14.6719 42.5289 15.7051L40.126 13.742L36.6784 17.7716L39.0813 19.7348C38.2455 21.1814 37.7232 22.8346 37.5142 24.5911L34.4845 24.9011L34.9024 30.0673L37.9321 29.7573C38.4545 31.4105 39.1858 32.9604 40.335 34.3036L38.35 36.5768L42.4245 39.9865L44.305 37.61ZM17.2465 47.3226L19.3359 47.1159C19.6493 48.2525 20.1717 49.2857 20.903 50.2157L19.5449 51.7655L22.2612 54.0387L23.6193 52.4888C24.664 53.0054 25.7088 53.4187 26.9624 53.5221L27.1714 55.4852L30.7235 55.1753L30.5145 53.2121C31.6637 52.9021 32.7085 52.2822 33.6487 51.6622L35.2158 53.0054L37.5142 50.319L35.9471 48.9758C36.4695 47.9425 36.8874 46.9093 36.9919 45.6694L39.0813 45.4627L38.7679 41.9497L36.6784 42.1563C36.365 41.0198 35.8427 39.9865 35.1113 39.1599L36.4695 37.61L33.7532 35.3369L32.395 36.8868C31.3503 36.3701 30.3056 35.9568 29.1564 35.8535L28.9474 33.787L25.3954 34.097L25.6043 36.1635C24.4551 36.4735 23.4104 36.9901 22.5746 37.7134L21.0075 36.3701L18.7091 39.0566L20.2762 40.3998C19.7538 41.4331 19.3359 42.4663 19.2314 43.7062L17.142 43.9129L17.2465 47.3226ZM11.6049 24.3844L13.6944 24.1778C14.0078 25.3144 14.5302 26.3476 15.2615 27.2775L13.9033 28.8274L16.6196 31.1006L17.9778 29.5507C19.0225 30.0673 20.0672 30.4806 21.3209 30.5839L21.5299 32.6504L25.0819 32.3405L24.873 30.3773C26.0222 30.0673 27.0669 29.4474 28.0072 28.8274L29.5743 30.1706L31.8727 27.4842L30.3056 26.141C30.828 25.1077 31.2458 24.0745 31.3503 22.8346L33.4398 22.6279L33.1264 19.1149L31.0369 19.3215C30.7235 18.1849 30.2011 17.1517 29.4698 16.3251L30.8279 14.7752L28.1117 12.5021L26.7535 14.0519C25.7088 13.5353 24.664 13.122 23.5148 13.0187L23.3059 10.9522L19.7538 11.2622L19.9628 13.3287C18.8136 13.6386 17.7688 14.1553 16.933 14.8785L15.3659 13.5353L13.0675 16.2218L14.6346 17.565C14.1123 18.5982 13.6944 19.6315 13.5899 20.8714L11.5004 21.078L11.6049 24.3844Z" fill="#8C8C8C"/>
</svg>
