<svg width="180" height="90" viewBox="0 0 180 90" fill="none" xmlns="http://www.w3.org/2000/svg">
<path d="M107.96 49.5081C107.96 41.458 122.085 27.3703 124.507 24.9553L127.735 28.1753C129.35 29.7853 132.175 29.7853 133.789 28.1753C135.404 26.5653 135.404 23.7478 133.789 22.1377L112.803 1.20751C111.188 -0.402504 108.363 -0.402504 106.749 1.20751C105.135 2.81753 105.135 5.63506 106.749 7.24508L109.574 10.0626C106.749 12.8801 92.2197 27.3703 84.9552 26.5653C76.8834 26.1628 72.4439 37.4329 72.4439 37.4329L81.3229 46.6905L45 88.9535L88.1839 53.5331L97.0628 62.3882C97.0628 62.3882 107.96 58.7657 107.96 49.5081Z" fill="#8C8C8C"/>
</svg>
