<svg width="180" height="90" viewBox="0 0 180 90" fill="none" xmlns="http://www.w3.org/2000/svg">
<path d="M48.0407 60.3879C48.0407 54.8532 48.1161 49.3184 48.003 43.746C47.9275 40.508 49.2854 38.2113 51.737 36.3664C53.0949 35.3498 54.6036 34.5968 56.15 33.9567C60.1104 32.3377 64.2216 31.5094 68.446 31.2082C73.2738 30.8693 78.1017 30.907 82.8918 31.8482C85.6075 32.3754 88.2855 33.0907 90.8503 34.145C92.623 34.898 94.3203 35.8393 95.7536 37.1571C99.4876 40.5833 99.3745 44.725 95.6027 48.0759C94.3203 49.2055 92.887 50.0338 91.3029 50.7492C88.21 52.1423 84.9286 52.9706 81.5717 53.4977C80.1384 53.7236 78.7052 53.8742 77.2719 53.9872C70.9353 54.4766 64.7496 53.8366 58.6394 52.067C56.414 51.4269 54.3773 50.3727 52.3405 49.3561C52.1142 49.2431 51.5484 49.582 51.5484 49.8455C51.5484 49.9585 51.473 50.0714 51.473 50.1844C51.473 51.5022 51.473 52.82 51.4353 54.1754C51.3976 55.4932 52.0011 56.4722 52.9063 57.3381C54.151 58.5053 55.6597 59.296 57.2061 59.9361C59.8841 61.0656 62.7129 61.7433 65.5794 62.1575C70.6336 62.9105 75.6878 62.9105 80.7419 62.1575C83.4953 61.7433 86.1733 61.1409 88.7758 60.0867C91.3783 59.0324 93.83 57.7523 95.1501 55.0791C95.2632 54.8155 95.7158 54.6649 96.0553 54.5896C96.3948 54.5143 96.7719 54.5143 97.1491 54.5519C98.0543 54.5896 98.5069 55.2297 98.2806 55.9827C97.8657 57.4134 97.1114 58.6183 96.0553 59.6349C94.9992 60.6515 93.83 61.4421 92.5098 62.1575C90.8125 63.0611 89.0021 63.7765 87.1539 64.266C84.0234 65.132 80.8174 65.772 77.5359 65.885C72.9344 66.0732 68.3705 66.0732 63.8444 65.2826C59.9972 64.6048 56.3386 63.5129 52.944 61.5927C52.0388 61.0656 51.5107 61.3292 51.473 62.2328C51.4353 63.5506 51.473 64.8684 51.473 66.2238C51.473 67.2404 51.9256 68.0688 52.6423 68.7841C53.472 69.6501 54.4904 70.3278 55.5465 70.8926C57.357 71.8339 59.2806 72.5492 61.2796 73.0387C67.5785 74.5824 73.915 74.8836 80.327 73.98C82.8541 73.6035 85.3058 73.114 87.7197 72.2857C89.1907 71.7962 90.624 71.1185 91.9818 70.2902C93.0002 69.6501 94.0563 68.9347 94.5843 67.8428C95.3009 66.2615 96.4702 66.2238 97.8657 66.525C98.1675 66.6004 98.4315 67.0522 98.3938 67.3534C98.0921 69.0853 97.1491 70.4784 95.8667 71.6456C94.5089 72.8881 92.9625 73.7917 91.3029 74.5448C88.0969 75.9755 84.7023 76.8038 81.2323 77.331C75.9518 78.1216 70.6336 78.1216 65.3531 77.331C61.3928 76.7285 57.5456 75.7873 53.9624 73.9047C53.4343 73.6411 52.8686 73.3776 52.3405 73.114C52.1142 73.0011 51.5862 73.4152 51.5862 73.6788C51.5862 73.7917 51.5107 73.9047 51.5107 74.0176C51.5107 75.4484 51.5107 76.9168 51.473 78.3475C51.473 79.3641 51.9256 80.1925 52.6045 80.9078C53.7738 82.1503 55.2825 82.9786 56.8289 83.6564C59.2806 84.7483 61.8454 85.4636 64.4479 85.8778C67.9179 86.4426 71.3879 86.8191 74.8957 86.6308C79.0069 86.4049 83.0804 85.9531 87.0031 84.6353C87.9083 84.3341 88.8512 84.0329 89.7187 83.6187C91.9441 82.6021 93.9808 81.3596 95.1501 79.0629C95.5273 78.3099 97.4131 78.2722 98.1298 78.8747C98.2806 78.9876 98.3938 79.2888 98.3561 79.5147C98.0921 81.1337 97.2623 82.4139 96.093 83.5434C94.9615 84.6353 93.6414 85.4636 92.2458 86.2166C89.9828 87.3838 87.5688 88.1745 85.1172 88.7393C80.9682 89.6806 76.7816 90.0947 72.5572 89.9818C68.0688 89.9065 63.6558 89.4547 59.3183 88.1369C57.357 87.5344 55.4334 86.8191 53.6229 85.8401C52.3405 85.1248 51.1713 84.2964 50.1529 83.2422C48.7951 81.7738 48.003 80.0795 48.003 78.0463C48.0784 72.1727 48.0407 66.2615 48.0407 60.3879ZM73.2738 34.4085C68.8231 34.4462 64.3725 34.8227 60.0726 36.1405C58.4508 36.63 56.8666 37.1947 55.4334 38.0607C54.4904 38.6255 53.5852 39.2279 52.7931 39.9433C51.1336 41.487 51.1336 43.4072 52.68 44.9885C53.6984 46.0428 54.943 46.7958 56.2254 47.4359C58.7525 48.6407 61.3928 49.3937 64.1461 49.8832C70.2564 50.9751 76.3667 50.9374 82.4392 49.8832C84.476 49.5443 86.4373 49.0172 88.3609 48.2642C89.6056 47.7747 90.7748 47.1723 91.9064 46.5322C92.8493 46.0051 93.6791 45.2897 94.358 44.4238C95.2255 43.2942 95.2632 41.9011 94.4334 40.7339C93.7168 39.7174 92.7739 39.002 91.7555 38.3619C90.0959 37.383 88.3232 36.6676 86.475 36.1028C82.1752 34.8227 77.7622 34.4838 73.2738 34.4085Z" fill="#8C8C8C"/>
<path d="M132.678 34.07C132.678 40.4707 132.678 46.8338 132.678 53.2345C132.678 54.3264 132.641 55.4182 132.414 56.4725C131.999 58.2797 130.981 59.7481 129.623 61.0283C128.114 62.459 126.379 63.5133 124.494 64.3792C121.853 65.6217 119.062 66.4501 116.233 66.9395C112.914 67.5043 109.557 67.9185 106.163 67.7679C105.559 67.7302 104.956 67.6549 104.39 67.4666C104.126 67.3913 103.787 66.9772 103.749 66.7136C103.673 66.1489 103.787 65.5088 103.9 64.944C103.937 64.7558 104.201 64.5298 104.39 64.4922C105.484 64.4169 106.54 64.3416 107.634 64.3792C111.406 64.4169 115.102 63.8898 118.723 62.9108C120.609 62.4214 122.419 61.7813 124.079 60.8024C125.097 60.2 126.115 59.5222 127.058 58.7692C128.529 57.5644 129.321 56.0207 129.246 54.0251C129.171 52.3308 129.208 50.6365 129.208 48.9799C129.208 48.2269 128.68 48.0386 127.926 48.4528C127.813 48.5281 127.7 48.5657 127.624 48.641C122.495 51.9167 116.799 53.2345 110.802 53.5733C108.765 53.6863 106.691 53.5733 104.654 53.5733C104.013 53.5733 103.673 53.1215 103.711 52.3308C103.749 51.8414 103.787 51.3519 103.9 50.9001C103.937 50.7118 104.201 50.4483 104.39 50.4483C104.994 50.373 105.597 50.3353 106.2 50.3353C109.935 50.3353 113.669 50.1094 117.327 49.2434C119.553 48.7163 121.74 48.0386 123.777 46.9467C124.946 46.3066 126.04 45.5536 127.058 44.7253C128.529 43.5205 129.359 41.9768 129.246 39.9812C129.171 38.2869 129.133 36.6303 129.057 34.936C129.057 34.823 128.68 34.5971 128.492 34.6348C128.152 34.7101 127.813 34.8983 127.511 35.0866C123.362 37.7975 118.723 39.04 113.933 39.68C111.179 40.0565 108.388 40.1318 105.635 39.9812C105.182 39.9436 104.692 39.8306 104.239 39.7177C104.051 39.6424 103.824 39.4165 103.824 39.2282C103.749 38.7764 103.787 38.2869 103.824 37.7975C103.862 37.2703 104.277 36.8562 104.729 36.8185C105.71 36.7809 106.653 36.7809 107.634 36.7432C111.141 36.7056 114.612 36.2914 118.006 35.4254C120.118 34.8983 122.193 34.1829 124.079 33.1287C125.135 32.5639 126.115 31.8486 127.058 31.0955C128.529 29.8907 129.359 28.347 129.284 26.3891C129.208 24.6948 129.246 23.0005 129.208 21.3439C129.208 20.8167 128.642 20.5532 128.152 20.8544C125.172 22.737 122.004 24.1301 118.534 24.9207C115.818 25.5608 113.103 26.0503 110.312 26.0879C106.691 26.1256 103.07 26.2009 99.4867 25.5608C95.036 24.7701 90.8117 23.4523 87.0022 20.9674C86.8136 20.8544 86.5873 20.7038 86.361 20.7038C86.1724 20.7038 85.8329 20.8921 85.7952 21.005C85.6821 21.8333 85.6443 22.6617 85.6066 23.5276C85.5689 24.356 85.5689 25.2219 85.5312 26.0503C85.5312 26.4268 84.9654 26.9163 84.5128 26.9163C84.0225 26.9163 83.5322 26.9539 83.0795 26.8409C82.7778 26.7656 82.4761 26.4644 82.3252 26.1632C82.1743 25.862 82.1743 25.4479 82.1743 25.109C82.1743 21.3815 82.1743 17.654 82.1366 13.8889C82.0989 10.9145 83.3058 8.54244 85.4558 6.54693C86.8136 5.30443 88.3223 4.36315 89.9819 3.57248C91.9432 2.6312 93.98 1.91582 96.0921 1.3887C103.749 -0.493858 111.368 -0.456207 119.024 1.46401C121.137 1.99112 123.173 2.74415 125.135 3.68543C126.757 4.47611 128.265 5.45504 129.585 6.73518C131.584 8.6554 132.716 10.9521 132.678 13.776C132.641 18.1059 132.678 22.4358 132.678 26.8033C132.678 29.2506 132.678 31.6603 132.678 34.07ZM107.37 22.8123C111.594 22.6993 115.781 22.3228 119.854 21.005C121.702 20.4026 123.475 19.6872 125.097 18.633C126.229 17.9176 127.247 17.0893 128.077 16.035C129.548 14.1525 129.51 11.9311 128.001 10.0861C126.983 8.84365 125.738 7.94002 124.343 7.187C121.778 5.75625 119.024 4.92792 116.196 4.3255C112.386 3.49717 108.539 3.45952 104.692 3.57248C101.41 3.64778 98.242 4.28785 95.1115 5.22913C93.037 5.83155 91.038 6.69753 89.2275 7.94002C88.0206 8.76835 86.9267 9.70963 86.2101 10.9898C85.3426 12.4958 85.3803 13.9642 86.2855 15.4326C87.0399 16.7128 88.1337 17.654 89.3407 18.4447C91.0757 19.5743 92.9616 20.3649 94.8852 21.005C98.9587 22.3228 103.145 22.6993 107.37 22.8123Z" fill="#8C8C8C"/>
</svg>
