<svg width="180" height="90" viewBox="0 0 180 90" fill="none" xmlns="http://www.w3.org/2000/svg">
<path d="M131.272 2.73865C128.059 -0.472014 122.897 -0.816014 118.423 1.47732C117.39 1.82132 116.358 2.50931 115.325 3.54131L111.998 6.86664L127.142 22.0026L130.469 18.6773C131.386 17.76 132.075 16.728 132.534 15.5813C134.943 11.1093 134.599 5.94931 131.272 2.73865Z" fill="#8C8C8C"/>
<path d="M67.2574 79.336L67.3721 79.2213C68.5194 78.8773 69.7813 78.1893 70.8139 77.0427L94.447 54.4534L79.4181 39.3174L55.785 61.9067C54.7525 62.9387 53.9494 64.2 53.6053 65.3467L53.4905 65.4613L52.5728 68.0987L64.7335 80.2533L67.2574 79.336Z" fill="#8C8C8C"/>
<path d="M101.559 41.4964L98.6905 38.6298L119.226 18.1045L110.048 8.93115L81.5967 37.2538L96.7402 52.3898L125.192 24.0671L122.094 20.9711L101.559 41.4964Z" fill="#8C8C8C"/>
<path d="M55.3248 77.6158C55.6689 77.9598 55.5542 78.7625 54.9806 79.3358L48.6708 85.6425C49.015 85.6425 49.2444 85.6425 49.5886 85.5278L61.5199 81.3998L51.5389 71.4238L47.4088 83.2345C47.2941 83.5785 47.1794 83.9225 47.2941 84.2665L53.4892 77.9598C54.0628 77.3865 54.8659 77.1571 55.3248 77.6158Z" fill="#8C8C8C"/>
<path d="M122.898 87.936H46.0325C45.4589 87.936 45 88.3947 45 88.968C45 89.5414 45.4589 90 46.0325 90H122.898C123.471 90 123.93 89.5414 123.93 88.968C123.815 88.3947 123.356 87.936 122.898 87.936Z" fill="#8C8C8C"/>
</svg>
