<svg width="50" height="40" viewBox="0 0 50 40" fill="none" xmlns="http://www.w3.org/2000/svg">
<path d="M38.5 5.50012C37.1667 5.33345 34.1 4.70012 32.5 3.50012C30.5 2.00012 28.5 -0.499879 26 1.00012C23.5 2.50012 21 5 18.5 5C16 5 13 7.5 12.5 8.5C12 9.5 12.5 11.5 10.5 12C8.5 12.5 5.5 14.5 5.5 17C5.5 19.5 7.5 23.5 9.5 24C11.5 24.5 12.5 26.5 13 27.5C13.5 28.5 15.5 30 18 30.5C20.5 31 21.5 32 22 32.5C22.4 32.9 23.1667 33.3333 23.5 33.5M41.5 7.5C41.5 8.33333 41.8 10.1 43 10.5C44.5 11 47 12 48 14C49 16 49 16.5 49 17.5C49 18.5 49 20.5 47.5 21.5C46 22.5 44 24 43.5 25C43 26 41 30 39 30C37 30 35.5 29.5 33.5 31C31.5 32.5 30.5 34 28.5 34.5C26.5 35 26.5 34.5 26 34.5M12.5 31.5C11 31.5 7.5 31.5 7.5 35C7.5 38.5 10 39 10.5 39C11 39 12.5 39.5 14 38C15.2 36.8 15.1667 34.8333 15 34" stroke="#333333"/>
<circle cx="2.5" cy="35.5" r="2" stroke="#333333"/>
</svg>
