<svg width="302" height="40" viewBox="0 0 302 40" fill="none" xmlns="http://www.w3.org/2000/svg">
<g clip-path="url(#clip0_21_94)">
<path d="M53.7643 0.00708008V26.6714H40.3214V40H0V0.00708008H53.7643Z" fill="black"/>
<path d="M40.3145 26.6714H53.7573V13.3357L40.3145 13.3357V26.6714Z" fill="#7E7E7E"/>
<path d="M26.8784 40H40.3213V26.6643H26.8784V40Z" fill="#7E7E7E"/>
<path d="M53.7574 13.3357L67.2002 13.3357V9.53674e-06L53.7574 9.53674e-06V13.3357Z" fill="#7E7E7E"/>
<path d="M26.8784 26.6714H40.3213V13.3357L26.8784 13.3357V26.6714Z" fill="#4A4747"/>
<path d="M13.4356 40H26.8784V26.6643H13.4356L13.4356 40Z" fill="#4A4747"/>
<path d="M40.3145 13.3357L53.7573 13.3357V9.53674e-06L40.3145 9.53674e-06V13.3357Z" fill="#4A4747"/>
<path d="M53.7574 40H67.2002V26.6643H53.7574V40Z" fill="#7E7E7E"/>
<g clip-path="url(#clip1_21_94)">
<path d="M85.7758 14.396H81.6001V12.7146H85.7758C86.8393 12.6917 87.8512 12.2721 88.595 11.5454C89.3387 10.8187 89.7551 9.84274 89.7551 8.8264C89.7551 7.81007 89.3387 6.83411 88.595 6.10742C87.8512 5.38074 86.8393 4.96106 85.7758 4.93822H81.6001V3.25488H85.7758C87.3227 3.25488 88.8063 3.84198 89.9002 4.88703C90.994 5.93208 91.6086 7.34946 91.6086 8.82738C91.6086 10.3053 90.994 11.7227 89.9002 12.7677C88.8063 13.8128 87.3227 14.3999 85.7758 14.3999V14.396Z" fill="#4A5568"/>
<path d="M160.722 14.396H156.541V12.7146H160.722C161.786 12.6917 162.798 12.2721 163.542 11.5454C164.285 10.8187 164.702 9.84274 164.702 8.8264C164.702 7.81007 164.285 6.83411 163.542 6.10742C162.798 5.38074 161.786 4.96106 160.722 4.93822H156.541V3.25488H160.722C162.242 3.29344 163.686 3.89725 164.746 4.93772C165.807 5.9782 166.4 7.37312 166.4 8.82542C166.4 10.2777 165.807 11.6726 164.746 12.7131C163.686 13.7536 162.242 14.3574 160.722 14.396Z" fill="#4A5568"/>
<path d="M135.603 14.396H131.795C128.542 14.396 125.793 11.8425 125.793 8.82345C125.796 7.34636 126.412 5.93059 127.506 4.88667C128.6 3.84275 130.082 3.25592 131.628 3.25488H135.64V4.93822H131.63C130.551 4.93926 129.516 5.34935 128.753 6.07848C127.99 6.80761 127.561 7.79623 127.56 8.82738C127.56 10.935 129.5 12.7146 131.797 12.7146H133.841V9.41861H135.605L135.603 14.396Z" fill="#4A5568"/>
<path d="M103.805 14.3744L99.1213 3.19995H96.9954L92.3037 14.3744H94.2055L98.0584 5.1956L101.903 14.3744H103.805Z" fill="#4A5568"/>
<path d="M145.442 14.3743H148.006L144.447 11.153C145.527 11.13 146.555 10.7038 147.311 9.96575C148.066 9.22766 148.489 8.23632 148.489 7.20395C148.489 6.17159 148.066 5.18025 147.311 4.44216C146.555 3.70407 145.527 3.2779 144.447 3.25488H138.842V4.93822H144.437C145.053 4.95558 145.639 5.2019 146.069 5.62491C146.499 6.04792 146.739 6.61434 146.739 7.20395C146.739 7.79357 146.499 8.35998 146.069 8.783C145.639 9.20601 145.053 9.45233 144.437 9.46968H138.842V11.155H141.883L145.442 14.3743Z" fill="#4A5568"/>
<path d="M113.419 3.25488H103.725V4.93822H107.689V14.3743H109.453V4.93822H113.419V3.25488Z" fill="#4A5568"/>
<path d="M153.216 3.19995H151.452V14.3744H153.216V3.19995Z" fill="#4A5568"/>
<path d="M124.677 14.3744L119.995 3.19995H117.869L113.178 14.3744H115.077L118.932 5.1956L122.777 14.3744H124.677Z" fill="#4A5568"/>
<path d="M156.541 13.5574V7.71973H158.305V13.632" fill="#4A5568"/>
<path d="M81.6001 13.5574V7.71973H83.3641V13.632" fill="#4A5568"/>
<path d="M92.3037 14.3999H98.6114L97.9165 12.7146H93.9218" fill="#4A5568"/>
<path d="M113.178 14.3999H119.485L118.791 12.7146H114.796" fill="#4A5568"/>
</g>
<path d="M91.1454 31.8633H85.2063L84.0907 35.1774H80.5688L86.322 19.0555H90.1282L95.8376 35.1774H92.1845L91.1454 31.8633ZM90.2048 29.0852L88.1923 22.7415L86.1142 29.0852H90.2048Z" fill="#1C2422"/>
<path d="M104.053 25.5633C102.996 25.5633 102.27 26.0118 101.877 26.9086C101.672 27.3826 101.57 27.9878 101.57 28.7243V35.1774H98.4642V23.2774H101.472V25.0165C101.873 24.404 102.252 23.9628 102.609 23.693C103.251 23.2118 104.064 22.9711 105.049 22.9711C106.281 22.9711 107.287 23.2956 108.067 23.9446C108.855 24.5862 109.249 25.6545 109.249 27.1493V35.1774H106.055V27.9258C106.055 27.2987 105.971 26.8175 105.803 26.4821C105.497 25.8696 104.914 25.5633 104.053 25.5633Z" fill="#1C2422"/>
<path d="M122.878 24.7649C123.884 26.0264 124.388 27.5175 124.388 29.2383C124.388 30.9883 123.884 32.4868 122.878 33.7336C121.872 34.9732 120.344 35.593 118.295 35.593C116.246 35.593 114.719 34.9732 113.713 33.7336C112.706 32.4868 112.203 30.9883 112.203 29.2383C112.203 27.5175 112.706 26.0264 113.713 24.7649C114.719 23.5034 116.246 22.8727 118.295 22.8727C120.344 22.8727 121.872 23.5034 122.878 24.7649ZM118.284 25.5086C117.373 25.5086 116.669 25.8331 116.174 26.4821C115.685 27.1237 115.441 28.0425 115.441 29.2383C115.441 30.4342 115.685 31.3566 116.174 32.0055C116.669 32.6545 117.373 32.979 118.284 32.979C119.196 32.979 119.896 32.6545 120.384 32.0055C120.873 31.3566 121.117 30.4342 121.117 29.2383C121.117 28.0425 120.873 27.1237 120.384 26.4821C119.896 25.8331 119.196 25.5086 118.284 25.5086Z" fill="#1C2422"/>
<path d="M134.124 26.5368C133.861 25.9607 133.347 25.6727 132.581 25.6727C131.692 25.6727 131.094 25.9607 130.788 26.5368C130.62 26.8649 130.536 27.3534 130.536 28.0024V35.1774H127.375V23.2774H130.405V25.0165C130.791 24.3967 131.156 23.9555 131.499 23.693C132.104 23.2264 132.888 22.993 133.85 22.993C134.762 22.993 135.498 23.1935 136.059 23.5946C136.512 23.9665 136.854 24.4441 137.088 25.0274C137.496 24.3274 138.003 23.8133 138.608 23.4852C139.25 23.1571 139.964 22.993 140.752 22.993C141.277 22.993 141.794 23.0951 142.305 23.2993C142.815 23.5034 143.278 23.8607 143.694 24.3711C144.029 24.7868 144.255 25.2972 144.372 25.9024C144.445 26.3034 144.481 26.8904 144.481 27.6633L144.459 35.1774H141.266V27.5868C141.266 27.1347 141.193 26.7628 141.047 26.4711C140.77 25.917 140.259 25.6399 139.516 25.6399C138.655 25.6399 138.061 25.9972 137.733 26.7118C137.565 27.0909 137.481 27.5467 137.481 28.079V35.1774H134.342V28.079C134.342 27.3717 134.269 26.8576 134.124 26.5368Z" fill="#1C2422"/>
<path d="M148.606 24.5461C149.43 23.4961 150.845 22.9711 152.85 22.9711C154.155 22.9711 155.315 23.23 156.328 23.7477C157.342 24.2654 157.849 25.2425 157.849 26.679V32.1477C157.849 32.5269 157.856 32.9862 157.87 33.5258C157.892 33.9342 157.954 34.2112 158.056 34.3571C158.158 34.5029 158.312 34.6232 158.516 34.718V35.1774H155.125C155.03 34.9368 154.965 34.7107 154.928 34.4993C154.892 34.2878 154.863 34.0472 154.841 33.7774C154.411 34.2441 153.915 34.6415 153.353 34.9696C152.682 35.356 151.924 35.5493 151.078 35.5493C149.999 35.5493 149.106 35.243 148.399 34.6305C147.699 34.0107 147.349 33.1357 147.349 32.0055C147.349 30.5399 147.914 29.479 149.044 28.8227C149.664 28.4654 150.575 28.2102 151.778 28.0571L152.839 27.9258C153.415 27.8529 153.827 27.7618 154.075 27.6524C154.52 27.4628 154.742 27.1675 154.742 26.7665C154.742 26.2779 154.571 25.9425 154.228 25.7602C153.893 25.5706 153.397 25.4758 152.741 25.4758C152.004 25.4758 151.483 25.6581 151.177 26.0227C150.958 26.2925 150.812 26.6571 150.739 27.1165H147.731C147.797 26.0737 148.089 25.217 148.606 24.5461ZM150.925 32.9243C151.217 33.1649 151.574 33.2852 151.997 33.2852C152.668 33.2852 153.284 33.0883 153.845 32.6946C154.414 32.3008 154.709 31.5826 154.731 30.5399V29.3805C154.534 29.5045 154.334 29.6066 154.13 29.6868C153.933 29.7597 153.659 29.829 153.309 29.8946L152.609 30.0258C151.953 30.1425 151.483 30.2847 151.199 30.4524C150.717 30.7368 150.477 31.1779 150.477 31.7758C150.477 32.3081 150.626 32.6909 150.925 32.9243Z" fill="#1C2422"/>
<path d="M161.492 19.0555H164.609V35.1774H161.492V19.0555Z" fill="#1C2422"/>
<path d="M173.306 32.0493L175.767 23.2555H179.081L174.991 34.9805C174.203 37.2409 173.58 38.6409 173.12 39.1805C172.661 39.7274 171.742 40.0008 170.364 40.0008C170.087 40.0008 169.865 39.9972 169.697 39.9899C169.529 39.9899 169.278 39.979 168.942 39.9571V37.4633L169.336 37.4852C169.642 37.4998 169.934 37.4889 170.211 37.4524C170.488 37.4159 170.721 37.3321 170.911 37.2008C171.093 37.0769 171.261 36.818 171.414 36.4243C171.575 36.0305 171.64 35.7899 171.611 35.7024L167.236 23.2555H170.703L173.306 32.0493Z" fill="#1C2422"/>
<path d="M198.903 34.7836C198.014 35.3305 196.92 35.604 195.622 35.604C193.486 35.604 191.736 34.8639 190.372 33.3836C188.95 31.8961 188.239 29.8618 188.239 27.2805C188.239 24.6701 188.957 22.5774 190.394 21.0024C191.83 19.4274 193.73 18.6399 196.092 18.6399C198.141 18.6399 199.786 19.1612 201.025 20.204C202.272 21.2394 202.987 22.5336 203.169 24.0868H199.855C199.6 22.9857 198.976 22.2165 197.984 21.779C197.43 21.5383 196.814 21.418 196.136 21.418C194.838 21.418 193.77 21.9102 192.931 22.8946C192.1 23.8717 191.684 25.3446 191.684 27.3133C191.684 29.2967 192.137 30.7003 193.041 31.5243C193.945 32.3482 194.973 32.7602 196.125 32.7602C197.255 32.7602 198.181 32.4357 198.903 31.7868C199.625 31.1305 200.07 30.2737 200.238 29.2165H196.508V26.5258H203.224V35.1774H200.992L200.653 33.1649C200.004 33.9305 199.421 34.4701 198.903 34.7836Z" fill="#1C2422"/>
<path d="M217.203 31.6774C217.123 32.3847 216.755 33.1029 216.099 33.8321C215.078 34.9915 213.649 35.5711 211.811 35.5711C210.294 35.5711 208.956 35.0826 207.797 34.1055C206.638 33.1284 206.058 31.5389 206.058 29.3368C206.058 27.2732 206.579 25.6909 207.622 24.5899C208.672 23.4889 210.032 22.9383 211.702 22.9383C212.693 22.9383 213.587 23.1243 214.381 23.4961C215.176 23.868 215.832 24.455 216.35 25.2571C216.817 25.9644 217.119 26.7847 217.258 27.718C217.338 28.2649 217.371 29.0524 217.356 30.0805H209.197C209.241 31.2764 209.616 32.1149 210.324 32.5961C210.754 32.8951 211.271 33.0446 211.877 33.0446C212.518 33.0446 213.04 32.8623 213.441 32.4977C213.659 32.3008 213.853 32.0274 214.02 31.6774H217.203ZM214.119 28.0243C214.068 27.2003 213.816 26.5769 213.364 26.154C212.919 25.7237 212.365 25.5086 211.702 25.5086C210.98 25.5086 210.418 25.7347 210.017 26.1868C209.624 26.6389 209.376 27.2514 209.274 28.0243H214.119Z" fill="#1C2422"/>
<path d="M225.878 25.5633C224.821 25.5633 224.095 26.0118 223.702 26.9086C223.497 27.3826 223.395 27.9878 223.395 28.7243V35.1774H220.289V23.2774H223.297V25.0165C223.698 24.404 224.077 23.9628 224.434 23.693C225.076 23.2118 225.889 22.9711 226.874 22.9711C228.106 22.9711 229.112 23.2956 229.892 23.9446C230.68 24.5862 231.074 25.6545 231.074 27.1493V35.1774H227.88V27.9258C227.88 27.2987 227.796 26.8175 227.628 26.4821C227.322 25.8696 226.739 25.5633 225.878 25.5633Z" fill="#1C2422"/>
<path d="M244.966 31.6774C244.886 32.3847 244.517 33.1029 243.861 33.8321C242.84 34.9915 241.411 35.5711 239.574 35.5711C238.057 35.5711 236.719 35.0826 235.559 34.1055C234.4 33.1284 233.82 31.5389 233.82 29.3368C233.82 27.2732 234.342 25.6909 235.384 24.5899C236.434 23.4889 237.794 22.9383 239.464 22.9383C240.456 22.9383 241.349 23.1243 242.144 23.4961C242.939 23.868 243.595 24.455 244.113 25.2571C244.579 25.9644 244.882 26.7847 245.02 27.718C245.101 28.2649 245.133 29.0524 245.119 30.0805H236.959C237.003 31.2764 237.379 32.1149 238.086 32.5961C238.516 32.8951 239.034 33.0446 239.639 33.0446C240.281 33.0446 240.802 32.8623 241.203 32.4977C241.422 32.3008 241.615 32.0274 241.783 31.6774H244.966ZM241.881 28.0243C241.83 27.2003 241.579 26.5769 241.127 26.154C240.682 25.7237 240.128 25.5086 239.464 25.5086C238.742 25.5086 238.181 25.7347 237.78 26.1868C237.386 26.6389 237.138 27.2514 237.036 28.0243H241.881Z" fill="#1C2422"/>
<path d="M254.024 26.1321C252.769 26.1321 251.927 26.5404 251.497 27.3571C251.256 27.8165 251.136 28.5237 251.136 29.479V35.1774H247.997V23.2555H250.972V25.3336C251.453 24.5389 251.872 23.9956 252.23 23.704C252.813 23.2154 253.571 22.9711 254.505 22.9711C254.563 22.9711 254.611 22.9748 254.647 22.9821C254.691 22.9821 254.782 22.9857 254.92 22.993V26.1868C254.724 26.1649 254.549 26.1503 254.395 26.143C254.242 26.1357 254.118 26.1321 254.024 26.1321Z" fill="#1C2422"/>
<path d="M258.006 24.5461C258.83 23.4961 260.245 22.9711 262.25 22.9711C263.555 22.9711 264.715 23.23 265.728 23.7477C266.742 24.2654 267.249 25.2425 267.249 26.679V32.1477C267.249 32.5269 267.256 32.9862 267.27 33.5258C267.292 33.9342 267.354 34.2112 267.456 34.3571C267.558 34.5029 267.712 34.6232 267.916 34.718V35.1774H264.525C264.43 34.9368 264.365 34.7107 264.328 34.4993C264.292 34.2878 264.263 34.0472 264.241 33.7774C263.811 34.2441 263.315 34.6415 262.753 34.9696C262.082 35.356 261.324 35.5493 260.478 35.5493C259.399 35.5493 258.506 35.243 257.799 34.6305C257.099 34.0107 256.749 33.1357 256.749 32.0055C256.749 30.5399 257.314 29.479 258.444 28.8227C259.064 28.4654 259.975 28.2102 261.178 28.0571L262.239 27.9258C262.815 27.8529 263.227 27.7618 263.475 27.6524C263.92 27.4628 264.142 27.1675 264.142 26.7665C264.142 26.2779 263.971 25.9425 263.628 25.7602C263.293 25.5706 262.797 25.4758 262.141 25.4758C261.404 25.4758 260.883 25.6581 260.577 26.0227C260.358 26.2925 260.212 26.6571 260.139 27.1165H257.131C257.197 26.0737 257.489 25.217 258.006 24.5461ZM260.325 32.9243C260.617 33.1649 260.974 33.2852 261.397 33.2852C262.068 33.2852 262.684 33.0883 263.245 32.6946C263.814 32.3008 264.109 31.5826 264.131 30.5399V29.3805C263.934 29.5045 263.734 29.6066 263.53 29.6868C263.333 29.7597 263.059 29.829 262.709 29.8946L262.009 30.0258C261.353 30.1425 260.883 30.2847 260.599 30.4524C260.117 30.7368 259.877 31.1779 259.877 31.7758C259.877 32.3081 260.026 32.6909 260.325 32.9243Z" fill="#1C2422"/>
<path d="M276.284 32.9571V35.2868L274.808 35.3415C273.335 35.3925 272.329 35.1373 271.789 34.5758C271.439 34.2185 271.264 33.668 271.264 32.9243V25.5852H269.602V23.3649H271.264V20.0399H274.349V23.3649H276.284V25.5852H274.349V31.8852C274.349 32.3737 274.411 32.68 274.534 32.804C274.658 32.9206 275.038 32.979 275.672 32.979C275.767 32.979 275.865 32.979 275.967 32.979C276.077 32.9717 276.182 32.9644 276.284 32.9571Z" fill="#1C2422"/>
<path d="M289.028 24.7649C290.034 26.0264 290.538 27.5175 290.538 29.2383C290.538 30.9883 290.034 32.4868 289.028 33.7336C288.022 34.9732 286.494 35.593 284.445 35.593C282.396 35.593 280.869 34.9732 279.863 33.7336C278.856 32.4868 278.353 30.9883 278.353 29.2383C278.353 27.5175 278.856 26.0264 279.863 24.7649C280.869 23.5034 282.396 22.8727 284.445 22.8727C286.494 22.8727 288.022 23.5034 289.028 24.7649ZM284.434 25.5086C283.523 25.5086 282.819 25.8331 282.324 26.4821C281.835 27.1237 281.591 28.0425 281.591 29.2383C281.591 30.4342 281.835 31.3566 282.324 32.0055C282.819 32.6545 283.523 32.979 284.434 32.979C285.346 32.979 286.046 32.6545 286.534 32.0055C287.023 31.3566 287.267 30.4342 287.267 29.2383C287.267 28.0425 287.023 27.1237 286.534 26.4821C286.046 25.8331 285.346 25.5086 284.434 25.5086Z" fill="#1C2422"/>
<path d="M299.574 26.1321C298.319 26.1321 297.477 26.5404 297.047 27.3571C296.806 27.8165 296.686 28.5237 296.686 29.479V35.1774H293.547V23.2555H296.522V25.3336C297.003 24.5389 297.423 23.9956 297.78 23.704C298.363 23.2154 299.121 22.9711 300.055 22.9711C300.113 22.9711 300.161 22.9748 300.197 22.9821C300.241 22.9821 300.332 22.9857 300.47 22.993V26.1868C300.274 26.1649 300.099 26.1503 299.945 26.143C299.792 26.1357 299.668 26.1321 299.574 26.1321Z" fill="#1C2422"/>
</g>
<defs>
<clipPath id="clip0_21_94">
<rect width="301.6" height="40" fill="white"/>
</clipPath>
<clipPath id="clip1_21_94">
<rect width="84.8" height="11.2" fill="white" transform="translate(81.6001 3.19995)"/>
</clipPath>
</defs>
</svg>
